<svg xmlns="http://www.w3.org/2000/svg" viewBox="0 0 64 64" width="64" height="64">
  <rect width="64" height="64" rx="12" fill="#065f46"/>
  <!-- domes -->
  <path d="M20 30a8 8 0 0 1 16 0z" fill="#ffffff"/>
  <path d="M28 22a8 8 0 0 1 16 0z" fill="#ffffff"/>
  <path d="M32 14l1.6 2.8-1.6 2-1.6-2z" fill="#ffffff"/>
  <!-- main building -->
  <rect x="16" y="30" width="32" height="20" rx="2" fill="#ffffff"/>
  <!-- arched doorway -->
  <path d="M27 50v-9a5 5 0 0 1 10 0v9z" fill="#065f46"/>
  <!-- minaret -->
  <rect x="48" y="20" width="5" height="30" fill="#ffffff"/>
  <path d="M48 20l2.5-4 2.5 4z" fill="#ffffff"/>
  <!-- base -->
  <rect x="12" y="50" width="40" height="4" rx="2" fill="#ffffff"/>
</svg>
